PathFileType	4	(X/Y/Z)	Walk8.trc
DataRate	CameraRate	NumFrames	NumMarkers	Units	OrigDataRate	OrigDataStartFrame	OrigNumFrames
200.000000	200.000000	4	55	mm	200.000000	764	935
Frame#	Times		LToe		LWRR		C7		RTH2		LACR1		RBHD		LElbow		LUA1		RMT1		LCAR		RCAR		RToe		LWRU		RTB2		LMMAL		RTB3		LTH3		RFA1		RTB4		RMT5		LMT5		RTB1		RMFC		RElbow		LTH4		RElbowM		RMMAL		RLFC		RCAL		LTB2		LPSI		LLFC		RPSI		RTH3		LTH2		T10		LASI		LCAL		LBHD		RBack		RASI		RFHD		LFHD		RACR1		LMT1		RLMAL		LLMAL		RUA1		RWRR		LTB1		LMFC		LTH1		LTB3		LTB4		RTH4
			X1	Y1	Z1	X2	Y2	Z2	X3	Y3	Z3	X4	Y4	Z4	X5	Y5	Z5	X6	Y6	Z6	X7	Y7	Z7	X8	Y8	Z8	X9	Y9	Z9	X10	Y10	Z10	X11	Y11	Z11	X12	Y12	Z12	X13	Y13	Z13	X14	Y14	Z14	X15	Y15	Z15	X16	Y16	Z16	X17	Y17	Z17	X18	Y18	Z18	X19	Y19	Z19	X20	Y20	Z20	X21	Y21	Z21	X22	Y22	Z22	X23	Y23	Z23	X24	Y24	Z24	X25	Y25	Z25	X26	Y26	Z26	X27	Y27	Z27	X28	Y28	Z28	X29	Y29	Z29	X30	Y30	Z30	X31	Y31	Z31	X32	Y32	Z32	X33	Y33	Z33	X34	Y34	Z34	X35	Y35	Z35	X36	Y36	Z36	X37	Y37	Z37	X38	Y38	Z38	X39	Y39	Z39	X40	Y40	Z40	X41	Y41	Z41	X42	Y42	Z42	X43	Y43	Z43	X44	Y44	Z44	X45	Y45	Z45	X46	Y46	Z46	X47	Y47	Z47	X48	Y48	Z48	X49	Y49	Z49	X50	Y50	Z50	X51	Y51	Z51	X52	Y52	Z52	X53	Y53	Z53	X54	Y54	Z54	X55	Y55	Z55

764	3.82	132.85	59.937	-77.423	251.8	815.67	-282.25	153.32	1483	-12.101	314.52	679.62	106.02	246.99	1423.6	-181.1	183.14	1616.3	-73.629	177.81	1087.7	-301.33	219.15	1222	-260.65	387.02	28.885	34.774	199.47	947.43	-299.37	281.32	796.17	258	437.1	32.579	76.523	324.27	806.33	-264.81	288.63	286.98	99.714	17.26	176.46	-59.769	286.1	200.67	23.166	297.63	575.42	-153.19	187.58	929.15	266.53	298.43	288.48	25.759	340.76	23.687	110.9	65.588	70.767	-140.48	310.02	385.78	32.539	247.39	493.5	-7.9464	150.61	1087	267.3	279.44	667.47	-168.15	113.87	1091	189.49	262.11	69.637	-6.8071	268.62	526.31	116.05	177.44	32.452	6.8229	199.82	332.88	-143.78	70.463	1039.6	-47.439	290.39	518.59	-147.6	71.502	1044.5	21.78	262.94	573.67	121.2	338.01	682.61	-126.6	82.489	1225.2	-12.53	261.93	1038.8	-170.15	-70.669	195.96	-103.18	184.51	1608.1	63.084	134.04	1368.6	138.17	263.48	998.88	140.14	359.87	1653.8	-42.635	360.18	1651	32.334	262.47	1426.5	143.72	82.267	64.069	-61.447	229.72	66.151	69.89	0.36055	177.47	-143.91	225.08	1246.2	226.84	283.79	843.29	209.48	260.68	392.18	-63.681	287.48	497.89	-12.45	260.83	757.46	-179.03	129.52	267.43	-76.862	196.99	331.45	-70.108	252.84	664.8	141.53
765	3.825	148.39	60.013	-77.915	252.15	815.64	-282.45	158.13	1483.5	-12.181	317.29	679.31	105.89	251.62	1423.9	-181.19	188.03	1616.7	-73.818	180.4	1088.2	-300.93	222.62	1222.4	-260.53	387.11	28.72	34.652	200.92	947.87	-299.21	287.55	797.3	258.46	437.28	32.283	76.458	324.59	805.65	-265.18	289.75	286.73	99.54	30.177	174.58	-59.662	286.71	200.45	22.916	305.46	576.89	-153.13	193.36	929.92	267.02	299.32	288.21	25.574	340.74	23.682	110.91	80.412	70.11	-140.7	311.29	385.46	32.374	249.1	493.36	-7.9931	155.84	1087.7	267.74	286.24	668.78	-168.18	119.06	1091.5	189.91	262.25	69.438	-7.0168	270.74	526.18	116.01	177.46	32.486	6.69	210.56	333.47	-143.8	74.943	1040.2	-47.249	299	520.26	-147.59	75.953	1045	21.971	265.33	573.56	121.16	345.01	684.5	-126.93	87.098	1225.8	-12.351	266.48	1039.1	-169.86	-58.245	192.43	-102.88	189.38	1608.6	62.894	138.87	1369.2	138.25	267.63	999.22	140.64	364.82	1654.1	-42.819	365.13	1651.3	32.146	267.33	1427.1	143.61	97.654	63.664	-61.798	229.98	66.268	69.596	13.13	175.43	-143.77	230.11	1246.8	227.01	289.76	844.36	209.86	271.41	393.46	-64.074	296.59	499.27	-12.215	266.73	758.62	-179.1	141.08	267.04	-76.855	207.86	331.99	-70.113	255.68	664.75	141.6
766	3.83	164.1	60.044	-78.412	252.5	815.62	-282.67	162.92	1483.9	-12.271	320.08	678.99	105.73	256.24	1424.1	-181.29	192.93	1617.2	-74.023	182.99	1088.8	-300.54	226.1	1222.7	-260.41	387.19	28.558	34.523	202.38	948.32	-299.06	293.75	798.43	258.92	437.45	31.992	76.391	324.9	804.97	-265.54	290.87	286.48	99.361	43.276	172.54	-59.535	287.31	200.23	22.668	313.22	578.38	-153.07	199.12	930.69	267.5	300.21	287.93	25.387	340.72	23.677	110.92	95.429	69.347	-140.91	312.57	385.14	32.192	250.8	493.21	-8.0492	161.05	1088.3	268.18	292.99	670.1	-168.22	124.23	1092	190.32	262.38	69.242	-7.2139	272.88	526.05	115.96	177.47	32.521	6.5622	221.31	334.02	-143.82	79.412	1040.8	-47.061	307.51	521.91	-147.59	80.396	1045.5	22.161	267.73	573.44	121.11	351.91	686.4	-127.24	91.707	1226.3	-12.163	271.01	1039.3	-169.58	-45.615	188.68	-102.52	194.26	1609	62.689	143.7	1369.8	138.33	271.79	999.52	141.1	369.77	1654.3	-43.024	370.09	1651.6	31.938	272.2	1427.7	143.49	113.24	63.158	-62.146	230.23	66.392	69.32	26.07	173.21	-143.6	235.15	1247.5	227.17	295.72	845.44	210.24	282.13	394.72	-64.482	305.36	500.67	-12.168	272.57	759.78	-179.2	152.75	266.52	-76.866	218.75	332.45	-70.138	258.53	664.67	141.69
767	3.835	179.99	60.041	-78.907	252.86	815.61	-282.91	167.71	1484.3	-12.369	322.89	678.66	105.54	260.84	1424.3	-181.4	197.84	1617.6	-74.242	185.61	1089.4	-300.17	229.61	1223	-260.28	387.27	28.401	34.39	203.84	948.77	-298.91	299.94	799.56	259.36	437.61	31.706	76.323	325.2	804.29	-265.9	292	286.23	99.178	56.549	170.33	-59.393	287.9	200.01	22.425	320.9	579.88	-153.03	204.86	931.46	267.97	301.11	287.64	25.199	340.7	23.673	110.92	110.63	68.489	-141.12	313.89	384.81	31.996	252.51	493.07	-8.1119	166.24	1089	268.61	299.68	671.42	-168.27	129.39	1092.5	190.72	262.49	69.05	-7.397	275.04	525.91	115.89	177.49	32.558	6.4417	232.07	334.52	-143.85	83.869	1041.3	-46.873	315.92	523.55	-147.59	84.83	1046	22.349	270.14	573.32	121.04	358.72	688.3	-127.51	96.316	1226.7	-11.968	275.51	1039.6	-169.31	-32.782	184.71	-102.14	199.15	1609.5	62.469	148.55	1370.4	138.41	275.95	999.79	141.53	374.74	1654.5	-43.249	375.06	1651.8	31.71	277.07	1428.3	143.36	129	62.563	-62.488	230.46	66.517	69.067	39.179	170.83	-143.4	240.18	1248.2	227.32	301.68	846.51	210.61	292.8	395.95	-64.889	313.77	502.07	-12.318	278.34	760.95	-179.33	164.52	265.9	-76.898	229.67	332.81	-70.185	261.39	664.57	141.79
